<mxfile host="Electron" modified="2021-03-31T06:40:21.015Z" agent="5.0 (Windows NT 10.0; Win64; x64) AppleWebKit/537.36 (KHTML, like Gecko) draw.io/14.1.8 Chrome/87.0.4280.88 Electron/11.1.1 Safari/537.36" etag="YmQ1fIkdbDir-UK3k7dM" compressed="false" version="14.1.8" type="device">
  <diagram id="UvNM3isBRru4vlubQ8CU" name="Seite-1">
    <mxGraphModel dx="652" dy="414" grid="1" gridSize="10" guides="1" tooltips="1" connect="1" arrows="1" fold="1" page="1" pageScale="1" pageWidth="827" pageHeight="1169" background="#000000" math="0" shadow="0">
      <root>
        <mxCell id="0" />
        <mxCell id="1" parent="0" />
        <mxCell id="ATQ-_7qSr0HIZTYXPX5r-1" value="Innensicht&lt;br&gt;&lt;i&gt;- Wir&lt;/i&gt;" style="rounded=1;whiteSpace=wrap;html=1;align=left;spacingLeft=10;fillColor=#dae8fc;strokeColor=#6c8ebf;" vertex="1" parent="1">
          <mxGeometry x="120" y="240" width="290" height="40" as="geometry" />
        </mxCell>
        <mxCell id="ATQ-_7qSr0HIZTYXPX5r-2" value="AuÃŸensicht&lt;br&gt;&lt;i&gt;- Umfeld&lt;/i&gt;" style="rounded=1;whiteSpace=wrap;html=1;align=left;spacingLeft=10;fillColor=#e1d5e7;strokeColor=#9673a6;" vertex="1" parent="1">
          <mxGeometry x="120" y="320" width="290" height="40" as="geometry" />
        </mxCell>
        <mxCell id="ATQ-_7qSr0HIZTYXPX5r-4" value="Chancen&lt;span style=&quot;color: rgba(0 , 0 , 0 , 0) ; font-family: monospace ; font-size: 0px&quot;&gt;%3CmxGraphModel%3E%3Croot%3E%3CmxCell%20id%3D%220%22%2F%3E%3CmxCell%20id%3D%221%22%20parent%3D%220%22%2F%3E%3CmxCell%20id%3D%222%22%20value%3D%22Innensicht%22%20style%3D%22rounded%3D1%3BwhiteSpace%3Dwrap%3Bhtml%3D1%3Balign%3Dleft%3BspacingLeft%3D10%3B%22%20vertex%3D%221%22%20parent%3D%221%22%3E%3CmxGeometry%20x%3D%2280%22%20y%3D%2280%22%20width%3D%22550%22%20height%3D%2240%22%20as%3D%22geometry%22%2F%3E%3C%2FmxCell%3E%3C%2Froot%3E%3C%2FmxGraphModel%3E&lt;/span&gt;" style="rounded=1;whiteSpace=wrap;html=1;align=center;verticalAlign=top;spacingTop=5;fillColor=#d5e8d4;strokeColor=#82b366;" vertex="1" parent="1">
          <mxGeometry x="200" y="200" width="80" height="170" as="geometry" />
        </mxCell>
        <mxCell id="ATQ-_7qSr0HIZTYXPX5r-5" value="Risiken" style="rounded=1;whiteSpace=wrap;html=1;align=center;verticalAlign=top;spacingTop=5;fillColor=#f8cecc;strokeColor=#b85450;" vertex="1" parent="1">
          <mxGeometry x="320" y="200" width="80" height="170" as="geometry" />
        </mxCell>
        <mxCell id="ATQ-_7qSr0HIZTYXPX5r-10" value="" style="endArrow=classic;html=1;exitX=1;exitY=0.5;exitDx=0;exitDy=0;entryX=0;entryY=0.5;entryDx=0;entryDy=0;strokeColor=#6c8ebf;fillColor=#dae8fc;strokeWidth=2;" edge="1" parent="1" source="ATQ-_7qSr0HIZTYXPX5r-7" target="ATQ-_7qSr0HIZTYXPX5r-6">
          <mxGeometry width="50" height="50" relative="1" as="geometry">
            <mxPoint x="510" y="250" as="sourcePoint" />
            <mxPoint x="300" y="300" as="targetPoint" />
          </mxGeometry>
        </mxCell>
        <mxCell id="ATQ-_7qSr0HIZTYXPX5r-11" value="" style="endArrow=classic;html=1;exitX=1;exitY=0.5;exitDx=0;exitDy=0;entryX=0;entryY=0.5;entryDx=0;entryDy=0;strokeColor=#9673a6;fillColor=#e1d5e7;strokeWidth=2;" edge="1" parent="1" source="ATQ-_7qSr0HIZTYXPX5r-9" target="ATQ-_7qSr0HIZTYXPX5r-8">
          <mxGeometry width="50" height="50" relative="1" as="geometry">
            <mxPoint x="270" y="470" as="sourcePoint" />
            <mxPoint x="320" y="420" as="targetPoint" />
          </mxGeometry>
        </mxCell>
        <mxCell id="ATQ-_7qSr0HIZTYXPX5r-12" value="" style="endArrow=classic;html=1;exitX=0;exitY=1;exitDx=0;exitDy=0;entryX=1;entryY=0;entryDx=0;entryDy=0;strokeColor=#FFFFFF;strokeWidth=2;" edge="1" parent="1" source="ATQ-_7qSr0HIZTYXPX5r-6" target="ATQ-_7qSr0HIZTYXPX5r-9">
          <mxGeometry width="50" height="50" relative="1" as="geometry">
            <mxPoint x="310" y="300" as="sourcePoint" />
            <mxPoint x="290" y="310" as="targetPoint" />
          </mxGeometry>
        </mxCell>
        <mxCell id="ATQ-_7qSr0HIZTYXPX5r-7" value="&lt;b&gt;S&lt;/b&gt;trengths" style="rounded=0;whiteSpace=wrap;html=1;align=center;fillColor=#bac8d3;strokeColor=#23445d;" vertex="1" parent="1">
          <mxGeometry x="200" y="240" width="80" height="40" as="geometry" />
        </mxCell>
        <mxCell id="ATQ-_7qSr0HIZTYXPX5r-6" value="&lt;b&gt;W&lt;/b&gt;eaknesses" style="rounded=0;whiteSpace=wrap;html=1;align=center;fillColor=#bac8d3;strokeColor=#23445d;" vertex="1" parent="1">
          <mxGeometry x="320" y="240" width="80" height="40" as="geometry" />
        </mxCell>
        <mxCell id="ATQ-_7qSr0HIZTYXPX5r-8" value="&lt;b&gt;T&lt;/b&gt;hreats" style="rounded=0;whiteSpace=wrap;html=1;align=center;fillColor=#bac8d3;strokeColor=#23445d;" vertex="1" parent="1">
          <mxGeometry x="320" y="320" width="80" height="40" as="geometry" />
        </mxCell>
        <mxCell id="ATQ-_7qSr0HIZTYXPX5r-9" value="&lt;b&gt;O&lt;/b&gt;pportunities" style="rounded=0;whiteSpace=wrap;html=1;align=center;fillColor=#bac8d3;strokeColor=#23445d;" vertex="1" parent="1">
          <mxGeometry x="200" y="320" width="80" height="40" as="geometry" />
        </mxCell>
      </root>
    </mxGraphModel>
  </diagram>
</mxfile>
